<svg width="24.000000" height="24.000000" viewBox="0 0 24 24" fill="none" xmlns="http://www.w3.org/2000/svg" xmlns:xlink="http://www.w3.org/1999/xlink">
	<desc>
			Created with Pixso.
	</desc>
	<defs>
		<radialGradient id="paint_radial_1041_13720_0" cx="0.000000" cy="0.000000" r="1.000000" gradientUnits="userSpaceOnUse" gradientTransform="translate(12 12) rotate(90) scale(12 12)">
			<stop stop-color="#E9DC94"/>
			<stop offset="1.000000" stop-color="#E5CF5C"/>
		</radialGradient>
	</defs>
	<path id="Vector" d="M12 0C9.62695 0 7.30664 0.703125 5.33301 2.02148C3.35938 3.3418 1.82129 5.21484 0.913086 7.4082C0.00488281 9.59961 -0.232422 12.0137 0.230469 14.3418C0.693359 16.668 1.83691 18.8066 3.51465 20.4844C5.19336 22.1641 7.33105 23.3066 9.65918 23.7695C11.9863 24.2324 14.3994 23.9941 16.5918 23.0859C18.7852 22.1777 20.6592 20.6406 21.9775 18.666C23.2959 16.6934 24 14.373 24 12C24 10.4238 23.6895 8.86328 23.0869 7.4082C22.4834 5.95117 21.5996 4.62891 20.4854 3.51367C19.3711 2.40039 18.0479 1.51562 16.5928 0.914062C15.1367 0.310547 13.5762 0 12 0ZM15.8154 18.1836C15.7705 18.2949 15.7021 18.3965 15.6152 18.4785C15.5273 18.5625 15.4238 18.627 15.3096 18.666C15.1963 18.707 15.0752 18.7227 14.9551 18.7109C14.835 18.7012 14.7178 18.6641 14.6133 18.6055L11.3555 16.0742L9.26465 18.002C9.21582 18.0391 9.15918 18.0605 9.09961 18.0703C9.04004 18.0781 8.97852 18.0703 8.92285 18.0488L9.32324 14.4629L9.33594 14.4727L9.34473 14.4023C9.34473 14.4023 15.2061 9.06445 15.4453 8.83789C15.6875 8.61133 15.6074 8.5625 15.6074 8.5625C15.6211 8.28516 15.1738 8.5625 15.1738 8.5625L7.40625 13.5586L4.17188 12.457C4.17188 12.457 3.6748 12.2793 3.62793 11.8867C3.5791 11.498 4.18848 11.2871 4.18848 11.2871L17.0488 6.17773C17.0488 6.17773 18.1055 5.70703 18.1055 6.48633L15.8154 18.1836Z" fill="url(#paint_radial_1041_13720_0)" fill-opacity="1.000000" fill-rule="nonzero"/>
</svg>
