<svg width="23.698242" height="23.699219" viewBox="0 0 23.6982 23.6992" fill="none" xmlns="http://www.w3.org/2000/svg" xmlns:xlink="http://www.w3.org/1999/xlink">
	<desc>
			Created with Pixso.
	</desc>
	<defs>
		<radialGradient id="paint_radial_1041_13716_0" cx="0.000000" cy="0.000000" r="1.000000" gradientUnits="userSpaceOnUse" gradientTransform="translate(11.8491 11.8491) rotate(90) scale(11.8491 11.8491)">
			<stop stop-color="#E9DC94"/>
			<stop offset="1.000000" stop-color="#E5CF5C"/>
		</radialGradient>
	</defs>
	<path id="Vector" d="M11.8496 0C5.30469 0 0 5.30469 0 11.8496C0 18.3926 5.30469 23.6992 11.8496 23.6992C18.3936 23.6992 23.6982 18.3926 23.6982 11.8496C23.6982 5.30469 18.3936 0 11.8496 0ZM16.4062 13.3691C16.4062 13.3691 17.4541 14.4023 17.7119 14.8828C17.7197 14.8926 17.7227 14.9023 17.7256 14.9082C17.8301 15.084 17.8555 15.2207 17.8037 15.3242C17.7168 15.4941 17.4209 15.5781 17.3193 15.5859L15.4678 15.5859C15.3398 15.5859 15.0703 15.5527 14.7451 15.3281C14.4941 15.1523 14.2471 14.8652 14.0068 14.584C13.6475 14.168 13.3369 13.8066 13.0225 13.8066C12.9834 13.8066 12.9434 13.8125 12.9053 13.8262C12.6689 13.9023 12.3652 14.2402 12.3652 15.1406C12.3652 15.4219 12.1426 15.584 11.9863 15.584L11.1387 15.584C10.8496 15.584 9.34473 15.4824 8.01172 14.0762C6.37988 12.3555 4.91113 8.90234 4.89844 8.86914C4.80664 8.64648 4.99805 8.52734 5.20605 8.52734L7.07617 8.52734C7.3252 8.52734 7.40723 8.67773 7.46387 8.8125C7.53027 8.96875 7.77441 9.59375 8.17578 10.293C8.82617 11.4375 9.22461 11.9004 9.54492 11.9004C9.60449 11.9004 9.66309 11.8848 9.71582 11.8574C10.1338 11.625 10.0557 10.1367 10.0371 9.82812C10.0371 9.77148 10.0361 9.16406 9.82227 8.87109C9.66895 8.66016 9.40918 8.58008 9.25098 8.55078C9.31445 8.46289 9.39941 8.39062 9.49707 8.3418C9.7832 8.19922 10.2988 8.17773 10.8115 8.17773L11.0967 8.17773C11.6514 8.18555 11.7949 8.2207 11.9961 8.27148C12.4033 8.36914 12.4121 8.63281 12.376 9.5332C12.3652 9.78711 12.3535 10.0762 12.3535 10.418C12.3535 10.4922 12.3506 10.5703 12.3506 10.6543C12.3379 11.1113 12.3232 11.6328 12.6465 11.8457C12.6885 11.8711 12.7373 11.8867 12.7871 11.8867C12.8994 11.8867 13.2373 11.8867 14.1533 10.3145C14.4355 9.80859 14.6816 9.2832 14.8877 8.74219C14.9062 8.71094 14.9609 8.61133 15.0254 8.57422C15.0723 8.54883 15.125 8.53711 15.1777 8.53711L17.376 8.53711C17.6162 8.53711 17.7803 8.57422 17.8105 8.66602C17.8652 8.8125 17.8008 9.26172 16.7979 10.6191L16.3496 11.2109C15.4395 12.4043 15.4395 12.4629 16.4062 13.3691Z" fill="url(#paint_radial_1041_13716_0)" fill-opacity="1.000000" fill-rule="nonzero"/>
</svg>
