<svg width="24.000000" height="24.000000" viewBox="0 0 24 24" fill="none" xmlns="http://www.w3.org/2000/svg" xmlns:xlink="http://www.w3.org/1999/xlink">
	<desc>
			Created with Pixso.
	</desc>
	<defs>
		<clipPath id="clip1041_13708">
			<rect id="whatsapp-128-svgrepo-com 1" width="24.000000" height="24.000000" fill="white" fill-opacity="0"/>
		</clipPath>
		<radialGradient id="paint_radial_1041_13712_0" cx="0.000000" cy="0.000000" r="1.000000" gradientUnits="userSpaceOnUse" gradientTransform="translate(12 12) rotate(90) scale(12 12)">
			<stop stop-color="#E9DC94"/>
			<stop offset="1.000000" stop-color="#E5CF5C"/>
		</radialGradient>
	</defs>
	<rect id="whatsapp-128-svgrepo-com 1" width="24.000000" height="24.000000" fill="#FFFFFF" fill-opacity="0"/>
	<g clip-path="url(#clip1041_13708)">
		<path id="whatsapp-[#128]" d="M18.9854 16.9453C18.6963 17.7637 17.5469 18.4414 16.6299 18.6387C16.002 18.7734 15.1836 18.877 12.4258 17.7344C9.3291 16.4512 5.02832 11.8809 5.02832 8.83984C5.02832 7.29102 5.9209 5.48828 7.48242 5.48828C8.2334 5.48828 8.39844 5.50195 8.64648 6.0957C8.93555 6.79492 9.64062 8.51562 9.72461 8.69141C10.0713 9.41602 9.37207 9.83984 8.86426 10.4688C8.70215 10.6602 8.51855 10.8652 8.72363 11.2168C8.92773 11.5625 9.63379 12.7129 10.6699 13.6367C12.0098 14.8281 13.0957 15.2109 13.4844 15.3711C13.7734 15.4922 14.1191 15.4648 14.3301 15.2383C14.5977 14.9492 14.9307 14.4688 15.2686 13.9961C15.5078 13.6582 15.8115 13.6152 16.1289 13.7363C16.3438 13.8105 19.0742 15.0781 19.1895 15.2812C19.2744 15.4277 19.2744 16.127 18.9854 16.9453ZM12.002 0L11.9961 0C5.38086 0 0 5.38281 0 12C0 14.623 0.845703 17.0586 2.28516 19.0332L0.790039 23.4922L5.40137 22.0176C7.29883 23.2734 9.5625 24 12.002 24C18.6182 24 24 18.6172 24 12C24 5.38281 18.6182 0 12.002 0Z" fill="url(#paint_radial_1041_13712_0)" fill-opacity="1.000000" fill-rule="evenodd"/>
	</g>
</svg>
