<svg width="20.000000" height="18.000000" viewBox="0 0 20 18" fill="none" xmlns="http://www.w3.org/2000/svg" xmlns:xlink="http://www.w3.org/1999/xlink">
	<desc>
			Created with Pixso.
	</desc>
	<defs/>
	<path id="Icon (Stroke)" d="M10 2C5.46777 2 2 5.24219 2 9C2 10.3516 2.43848 11.6191 3.20898 12.6992C3.40234 12.9707 3.44824 13.3203 3.33105 13.6309L2.56836 15.666L5.54883 15.0703C5.76074 15.0273 5.98047 15.0547 6.17578 15.1484C7.30859 15.6895 8.60938 16 10 16C14.5322 16 18 12.7578 18 9C18 5.24219 14.5322 2 10 2ZM0 9C0 3.92188 4.59082 0 10 0C15.4092 0 20 3.92188 20 9C20 14.0781 15.4092 18 10 18C8.43457 18 6.94824 17.6758 5.62305 17.0957L1.19629 17.9805C0.839844 18.0527 0.473633 17.9238 0.238281 17.6484C0.00292969 17.3711 -0.0634766 16.9883 0.0634766 16.6484L1.27832 13.4082C0.467773 12.1113 0 10.6074 0 9Z" fill="#6C6C6C" fill-opacity="1.000000" fill-rule="evenodd"/>
</svg>
