<svg width="18.000000" height="20.193359" viewBox="0 0 18 20.1934" fill="none" xmlns="http://www.w3.org/2000/svg" xmlns:xlink="http://www.w3.org/1999/xlink">
	<desc>
			Created with Pixso.
	</desc>
	<defs/>
	<path id="Icon" d="M3.34277 3.30469C6.46777 0.232422 11.5322 0.232422 14.6572 3.30469C17.7812 6.37891 17.7812 11.3613 14.6572 14.4336C13.7178 15.3594 11.751 17.293 10.4023 18.6191C9.62402 19.3848 8.37598 19.3848 7.59766 18.6191C6.27246 17.3164 4.34473 15.4199 3.34277 14.4336C0.21875 11.3613 0.21875 6.37891 3.34277 3.30469ZM9 11.8203C7.34277 11.8203 6 10.5 6 8.86914C6 7.24023 7.5 5.91797 9 5.91797C10.5 5.91797 12 7.24023 12 8.86914C12 10.5 10.6572 11.8203 9 11.8203Z" stroke="#6C6C6C" stroke-opacity="1.000000" stroke-width="2.000000" stroke-linejoin="round"/>
</svg>
