<svg width="11.066406" height="10.623047" viewBox="0 0 11.0664 10.623" fill="none" xmlns="http://www.w3.org/2000/svg" xmlns:xlink="http://www.w3.org/1999/xlink">
	<desc>
			Created with Pixso.
	</desc>
	<defs>
		<linearGradient id="paint_linear_24_10493_0" x1="5.533203" y1="-2.236328" x2="5.533203" y2="13.763672" gradientUnits="userSpaceOnUse">
			<stop stop-color="#C69142"/>
			<stop offset="1.000000" stop-color="#FFEF5F"/>
		</linearGradient>
	</defs>
	<path id="Icon" d="M4.58203 0.689453L3.96191 2.59961C3.82715 3.01172 3.44336 3.29102 3.01074 3.29102L1.00195 3.29102C0.0332031 3.29102 -0.369141 4.53125 0.414062 5.09961L2.03906 6.28125C2.38965 6.53516 2.53613 6.98633 2.40234 7.39844L1.78223 9.30859C1.48242 10.2305 2.53711 10.9961 3.32031 10.4277L4.94531 9.24609C5.2959 8.99219 5.77051 8.99219 6.12109 9.24609L7.74609 10.4277C8.5293 10.9961 9.58398 10.2305 9.28418 9.30859L8.66406 7.39844C8.53027 6.98633 8.67676 6.53516 9.02734 6.28125L10.6523 5.09961C11.4355 4.53125 11.0332 3.29102 10.0645 3.29102L8.05566 3.29102C7.62305 3.29102 7.23926 3.01172 7.10449 2.59961L6.48438 0.689453C6.18457 -0.230469 4.88184 -0.230469 4.58203 0.689453Z" fill="url(#paint_linear_24_10493_0)" fill-opacity="1.000000" fill-rule="evenodd"/>
</svg>
