<svg width="51.828125" height="46.000000" viewBox="0 0 51.8281 46" fill="none" xmlns="http://www.w3.org/2000/svg" xmlns:xlink="http://www.w3.org/1999/xlink">
	<desc>
			Created with Pixso.
	</desc>
	<defs/>
	<path id="Vector" d="M0 15.7715C0 7.06055 7.11426 0 15.8906 0C24.667 0 31.7822 7.06055 31.7822 15.7715L31.7822 30.2285C31.7822 38.9395 24.667 46 15.8906 46C7.11426 46 0 38.9395 0 30.2285L0 15.7715ZM27.1475 15.7715L27.1475 30.2285C27.1475 36.3984 22.1074 41.4004 15.8906 41.4004C9.6748 41.4004 4.63477 36.3984 4.63477 30.2285L4.63477 15.7715C4.63477 9.60156 9.6748 4.59961 15.8906 4.59961C22.1074 4.59961 27.1475 9.60156 27.1475 15.7715ZM40.7969 33.2383L40.7969 33.877C40.7969 34.3262 40.8965 34.7383 41.0957 35.1133C41.2949 35.4902 41.5879 35.793 41.9756 36.0195C42.3682 36.2461 42.8525 36.3594 43.4277 36.3594C43.998 36.3594 44.4766 36.2461 44.8643 36.0195C45.252 35.793 45.542 35.4902 45.7363 35.1133C45.9355 34.7383 46.0352 34.3262 46.0352 33.877L46.0352 33.2383C46.0352 32.7793 45.9355 32.3613 45.7363 31.9844C45.542 31.6094 45.249 31.3066 44.8555 31.0801C44.4688 30.8535 43.9844 30.7402 43.4033 30.7402C42.8389 30.7402 42.3633 30.8535 41.9756 31.0801C41.5879 31.3066 41.2949 31.6094 41.0957 31.9844C40.8965 32.3613 40.7969 32.7793 40.7969 33.2383ZM43.8926 42.0859L49.7949 32.6406L48.6328 32.0273L42.7305 41.4727L43.8926 42.0859ZM42.3828 33.877L42.3828 33.2383C42.3828 33.0332 42.418 32.8457 42.4902 32.6738Q42.5605 32.5137 42.6729 32.3926Q42.7461 32.3125 42.8389 32.25C42.9941 32.1406 43.1816 32.084 43.4033 32.084C43.6416 32.084 43.835 32.1406 43.9844 32.25C44.1396 32.3555 44.2529 32.4961 44.3242 32.6738C44.4023 32.8457 44.4414 33.0332 44.4414 33.2383L44.4414 33.877C44.4414 34.0703 44.4053 34.2559 44.333 34.4336C44.2607 34.6055 44.1504 34.7461 44.001 34.8574C43.8516 34.9629 43.6582 35.0156 43.4199 35.0156C43.1934 35.0156 42.999 34.9629 42.8389 34.8574Q42.7129 34.7676 42.6211 34.6504Q42.543 34.5508 42.4902 34.4336C42.418 34.2559 42.3828 34.0703 42.3828 33.877ZM46.5742 40.0371L46.5742 40.6758Q46.5742 41.1992 46.751 41.6543Q46.8037 41.791 46.873 41.9219C47.0781 42.2969 47.377 42.5996 47.7695 42.8262C48.1621 43.0527 48.6465 43.166 49.2227 43.166C49.792 43.166 50.2705 43.0527 50.6582 42.8262C51.0459 42.5996 51.3359 42.2969 51.5293 41.9219Q51.5986 41.791 51.6514 41.6543Q51.8281 41.1992 51.8281 40.6758L51.8281 40.0371Q51.8281 39.5137 51.6514 39.0586Q51.5986 38.9219 51.5293 38.791C51.3301 38.416 51.0371 38.1133 50.6504 37.8867C50.2627 37.6602 49.7812 37.5469 49.2051 37.5469C48.6357 37.5469 48.1543 37.6602 47.7617 37.8867C47.374 38.1133 47.0781 38.416 46.873 38.791Q46.8037 38.9219 46.751 39.0586Q46.5742 39.5137 46.5742 40.0371ZM48.168 40.6758L48.168 40.0371C48.168 39.8379 48.207 39.6523 48.2842 39.4805C48.3613 39.3027 48.4746 39.1621 48.625 39.0566C48.7793 38.9473 48.9727 38.8906 49.2051 38.8906C49.4375 38.8906 49.6289 38.9473 49.7783 39.0566Q49.8711 39.1191 49.9443 39.1992Q50.0566 39.3203 50.127 39.4805C50.2041 39.6523 50.2432 39.8379 50.2432 40.0371L50.2432 40.6758C50.2432 40.875 50.2129 41.0625 50.1523 41.2402C50.0967 41.418 49.9941 41.5586 49.8447 41.6641C49.6953 41.7695 49.4883 41.8203 49.2227 41.8203C49.0117 41.8203 48.8262 41.7695 48.666 41.6641C48.5107 41.5586 48.3896 41.418 48.3008 41.2402C48.2119 41.0625 48.168 40.875 48.168 40.6758Z" fill="#08C892" fill-opacity="1.000000" fill-rule="evenodd"/>
</svg>
