<svg width="50.916992" height="45.041016" viewBox="0 0 50.917 45.041" fill="none" xmlns="http://www.w3.org/2000/svg" xmlns:xlink="http://www.w3.org/1999/xlink">
	<desc>
			Created with Pixso.
	</desc>
	<defs/>
	<path id="Icon (Stroke)" d="M25.458 5.00391C36.9971 5.00391 45.8252 13.1152 45.8252 22.5215C45.8252 25.9043 44.71 29.0742 42.7471 31.7773C42.2549 32.4551 42.1377 33.3301 42.4355 34.1094L44.3789 39.2031L36.791 37.7109C36.251 37.6055 35.6904 37.6738 35.1943 37.9062C32.3115 39.2617 28.9971 40.0371 25.458 40.0371C13.9199 40.0371 5.0918 31.9258 5.0918 22.5215C5.0918 13.1152 13.9199 5.00391 25.458 5.00391ZM50.917 22.5215C50.917 9.81445 39.2285 0 25.458 0C11.6885 0 0 9.81445 0 22.5215C0 35.2285 11.6885 45.041 25.458 45.041C29.4434 45.041 33.2266 44.2305 36.6006 42.7773L47.8711 44.9922C48.7783 45.1719 49.7109 44.8516 50.3105 44.1602C50.9092 43.4688 51.0791 42.5117 50.7549 41.6602L47.6611 33.5527C49.7256 30.3047 50.917 26.541 50.917 22.5215Z" fill="#08C892" fill-opacity="1.000000" fill-rule="evenodd"/>
</svg>
