<svg width="52.000000" height="45.115234" viewBox="0 0 52 45.1152" fill="none" xmlns="http://www.w3.org/2000/svg" xmlns:xlink="http://www.w3.org/1999/xlink">
	<desc>
			Created with Pixso.
	</desc>
	<defs/>
	<path id="Vector" d="M51.0479 6.41797C52.3174 4.94922 52.3174 2.57031 51.0479 1.10156C49.7793 -0.367188 47.7207 -0.367188 46.4521 1.10156L16.25 36.0391L5.54785 23.6582C4.2793 22.1914 2.2207 22.1914 0.952148 23.6582C-0.317383 25.127 -0.317383 27.5078 0.952148 28.9766L13.9521 44.0137C15.2207 45.4824 17.2793 45.4824 18.5479 44.0137L51.0479 6.41797ZM44.6924 39.6602L47.3955 39.6602C48.2549 39.6602 48.9795 39.5059 49.5674 39.1934C50.1562 38.877 50.6016 38.4219 50.9033 37.8281Q51.3643 36.9297 51.3643 35.6719C51.3643 34.8984 51.2109 34.2168 50.9033 33.623C50.6016 33.0234 50.1562 32.5566 49.5674 32.2227C48.9795 31.8809 48.2549 31.709 47.3955 31.709L43.1924 31.709L43.1924 38.25L41.5752 38.25L41.5752 39.6602L43.1924 39.6602L43.1924 40.8926L41.5752 40.8926L41.5752 42.3105L43.1924 42.3105L43.1924 44.791L44.6924 44.791L44.6924 42.3105L47.3018 42.3105L47.3018 40.8926L44.6924 40.8926L44.6924 39.6602ZM44.6924 38.25L47.3955 38.25C47.9639 38.25 48.4297 38.1445 48.7939 37.9355C49.1592 37.7266 49.4268 37.4297 49.5986 37.0469C49.7764 36.6621 49.8643 36.2109 49.8643 35.6895C49.8643 35.2637 49.7812 34.8574 49.6143 34.4688C49.4531 34.0781 49.1904 33.7578 48.8252 33.5059C48.4658 33.2559 47.9893 33.1289 47.3955 33.1289L44.6924 33.1289L44.6924 38.25Z" fill="#08C892" fill-opacity="1.000000" fill-rule="evenodd"/>
</svg>
