<svg width="26.961914" height="28.000000" viewBox="0 0 26.9619 28" fill="none" xmlns="http://www.w3.org/2000/svg" xmlns:xlink="http://www.w3.org/1999/xlink">
	<desc>
			Created with Pixso.
	</desc>
	<defs/>
	<path id="Vector" d="M21.2188 5.04297C21.0684 5.24219 20.8447 5.37305 20.5977 5.4082L17.084 5.90039C16.5684 5.97266 16.0928 5.61133 16.0205 5.0957C16.0146 5.05078 16.0117 5.00781 16.0117 4.96289C16.0117 4.5 16.3525 4.0957 16.8232 4.0293L17.7734 3.89648C16.8076 3.50586 15.792 3.24805 14.7559 3.13281L14.7559 4.08984C14.7559 4.61133 14.334 5.0332 13.8135 5.0332C13.2939 5.0332 12.8721 4.61133 12.8721 4.08984L12.8721 3.08008C12.7988 3.08398 12.7256 3.08984 12.6523 3.0957C10.1211 3.28516 7.72656 4.31445 5.84766 6.02539C3.96875 7.73438 2.71289 10.0234 2.28125 12.5293C2.24219 12.7559 2.20996 12.9844 2.18457 13.2129L3.13965 13.2129C3.66016 13.2129 4.08105 13.6367 4.08105 14.1582C4.08105 14.6777 3.66016 15.1016 3.13965 15.1016L2.13184 15.1016C2.22363 16.7539 2.67285 18.377 3.46191 19.8555C4.65918 22.0977 6.57031 23.875 8.89062 24.9043C10.0605 25.4238 11.3008 25.7363 12.5586 25.8418L12.5586 24.8535C12.5586 24.332 12.9795 23.9102 13.5 23.9102C14.0205 23.9102 14.4414 24.332 14.4414 24.8535L14.4414 25.8418C15.0547 25.791 15.666 25.6895 16.2695 25.5391C18.7305 24.9199 20.915 23.4941 22.4766 21.4902C23.8203 19.7637 24.6357 17.6934 24.8359 15.5273C24.8906 14.9473 25.3584 14.4727 25.9424 14.4727C26.501 14.4727 26.9619 14.9043 26.9619 15.4512C26.9619 15.4766 26.9609 15.502 26.959 15.5273C26.9199 16.0195 26.8555 16.5078 26.7646 16.9883C26.3662 19.0938 25.4736 21.0859 24.1436 22.793C22.293 25.1699 19.7021 26.8594 16.7832 27.5938C13.8652 28.3262 10.7852 28.0625 8.03418 26.8418C5.2832 25.6211 3.01758 23.5137 1.59766 20.8555C0.542969 18.8809 0 16.6875 0 14.4727C0 13.7031 0.0654297 12.9336 0.197266 12.168C0.709961 9.19727 2.19824 6.48242 4.42578 4.45508C6.6543 2.42969 9.49414 1.20703 12.4941 0.982422C14.6504 0.820312 16.7998 1.17969 18.7676 2.01562C18.9131 2.07812 19.0576 2.14258 19.2002 2.20898L19.042 1.07422C19.0361 1.0293 19.0332 0.986328 19.0332 0.943359C19.0332 0.478516 19.374 0.0742188 19.8447 0.00976562C20.3604 -0.0625 20.8359 0.296875 20.9082 0.8125L21.3994 4.34375C21.4062 4.38672 21.4092 4.42969 21.4092 4.47266C21.4092 4.67773 21.3428 4.87695 21.2188 5.04297ZM12.8711 17.627L12.8711 18.5625L7.02734 18.5625L7.02734 17.7441L9.95215 14.4824C10.3115 14.0801 10.5898 13.7402 10.7861 13.4609C10.9863 13.1797 11.125 12.9277 11.2031 12.7051C11.2852 12.4805 11.3252 12.252 11.3252 12.0176C11.3252 11.7227 11.2646 11.457 11.1416 11.2188C11.0234 10.9766 10.8477 10.7852 10.6143 10.6406C10.3809 10.498 10.0996 10.4258 9.76855 10.4258C9.37207 10.4258 9.04004 10.5039 8.77441 10.6602C8.5127 10.8105 8.31738 11.0234 8.18652 11.2988Q7.99023 11.7109 7.99023 12.2461L6.85547 12.2461C6.85547 11.7422 6.96582 11.2812 7.18652 10.8633C7.40723 10.4453 7.73438 10.1133 8.16797 9.86719Q8.81738 9.49219 9.76855 9.49219C10.332 9.49219 10.8145 9.5918 11.2148 9.79297C11.6162 9.99023 11.9229 10.2695 12.1348 10.6289C12.3516 10.9863 12.46 11.4023 12.46 11.8828C12.46 12.1445 12.415 12.4102 12.3252 12.6816C12.2393 12.9473 12.1191 13.2148 11.9629 13.4805C11.8125 13.7461 11.6338 14.0078 11.4297 14.2676C11.2295 14.5254 11.0146 14.7793 10.7861 15.0293L8.39453 17.627L12.8711 17.627ZM20.1191 15.5508L20.1191 16.4844L18.874 16.4844L18.874 18.5625L17.7393 18.5625L17.7393 16.4844L13.668 16.4844L13.668 15.8145L17.666 9.61523L18.874 9.61523L18.874 15.5508L20.1191 15.5508ZM17.7393 11.1543L17.5986 11.4102L14.9561 15.5508L17.7393 15.5508L17.7393 11.1543Z" fill="#2C2C2C" fill-opacity="1.000000" fill-rule="evenodd"/>
</svg>
