<svg width="30.000000" height="23.386719" viewBox="0 0 30 23.3867" fill="none" xmlns="http://www.w3.org/2000/svg" xmlns:xlink="http://www.w3.org/1999/xlink">
	<desc>
			Created with Pixso.
	</desc>
	<defs/>
	<path id="Vector 219 (Stroke)" d="M1 17.3867L2.05859 17.3867L7.83691 0.0527344L14.0908 8.71289C14.499 9.27734 15.3467 9.26172 15.7334 8.68164L21.5215 0L27.8965 17.3867L29 17.3867C29.5527 17.3867 30 17.8359 30 18.3867L30 23.3867L21.1455 23.3867L19.0254 18.0859L15.8223 22.7129C15.4248 23.2871 14.5752 23.2871 14.1777 22.7129L10.9746 18.0859L8.85449 23.3867L0 23.3867L0 18.3867C0 17.8359 0.447266 17.3867 1 17.3867ZM10.5 13.8867L14.1777 19.1992C14.5752 19.7754 15.4248 19.7754 15.8223 19.1992L19.5 13.8867L22.5 21.3867L28 21.3867L28 19.3867L26.5 19.3867L21 4.38672L15.7988 12.1895C15.4121 12.7695 14.5645 12.7852 14.1562 12.2188L8.5 4.38672L3.5 19.3867L2 19.3867L2 21.3867L7.5 21.3867L10.5 13.8867Z" fill="#C91A1A" fill-opacity="1.000000" fill-rule="evenodd"/>
</svg>
