<svg width="25.333008" height="20.666016" viewBox="0 0 25.333 20.666" fill="none" xmlns="http://www.w3.org/2000/svg" xmlns:xlink="http://www.w3.org/1999/xlink">
	<desc>
			Created with Pixso.
	</desc>
	<defs/>
	<path id="Icon" d="M12.667 8C10.7334 8 9.16699 6.43359 9.16699 4.5C9.16699 2.56641 10.7334 1 12.667 1C14.5996 1 16.167 2.56641 16.167 4.5C16.167 6.43359 14.5996 8 12.667 8ZM20.833 10.334C19.5449 10.334 18.5 9.28906 18.5 8C18.5 6.71094 19.5449 5.66602 20.833 5.66602C22.1221 5.66602 23.167 6.71094 23.167 8C23.167 9.28906 22.1221 10.334 20.833 10.334ZM4.5 10.334C3.21094 10.334 2.16699 9.28906 2.16699 8C2.16699 6.71094 3.21094 5.66602 4.5 5.66602C5.78906 5.66602 6.83301 6.71094 6.83301 8C6.83301 9.28906 5.78906 10.334 4.5 10.334ZM18.084 15.166C18.7256 14.3555 19.7188 13.834 20.833 13.834C22.7666 13.834 24.333 15.4004 24.333 17.334L24.333 19.666L18.5 19.666L6.83301 19.666L1 19.666L1 17.334C1 15.4004 2.56738 13.834 4.5 13.834C5.61523 13.834 6.6084 14.3555 7.24902 15.166M18.5 19.666L18.5 17.334C18.5 16.5684 18.3525 15.8359 18.084 15.166C17.2246 13.0176 15.123 11.5 12.667 11.5C10.2109 11.5 8.10938 13.0176 7.24902 15.166C6.98047 15.8359 6.83301 16.5684 6.83301 17.334L6.83301 19.666" stroke="#111827" stroke-opacity="1.000000" stroke-width="2.000000" stroke-linejoin="round"/>
</svg>
