<svg width="36.000000" height="28.000000" viewBox="0 0 36 28" fill="none" xmlns="http://www.w3.org/2000/svg" xmlns:xlink="http://www.w3.org/1999/xlink">
	<desc>
			Created with Pixso.
	</desc>
	<defs/>
	<path id="Vector 195 (Stroke)" d="M0 1.16602C0 0.521484 0.503906 0 1.125 0L19.125 0C19.7461 0 20.25 0.521484 20.25 1.16602C20.25 4.125 19.9697 8.11133 18.6123 11.3965C17.9277 13.0547 16.9463 14.5879 15.5391 15.709C14.3672 16.6426 12.9443 17.2539 11.25 17.4395L11.25 25.666L16.875 25.666C17.4961 25.666 18 26.1895 18 26.834C18 27.4785 17.4961 28 16.875 28L3.375 28C2.75391 28 2.25 27.4785 2.25 26.834C2.25 26.1895 2.75391 25.666 3.375 25.666L9 25.666L9 17.4395C7.30566 17.2539 5.88281 16.6426 4.71094 15.709C3.30371 14.5879 2.32227 13.0547 1.6377 11.3965C0.280273 8.11133 0 4.125 0 1.16602ZM2.26562 2.33398C2.33984 4.97266 2.68652 8.01172 3.70605 10.4785C4.28711 11.8828 5.06348 13.0469 6.08203 13.8594C7.08496 14.6582 8.38672 15.166 10.125 15.166C11.8633 15.166 13.165 14.6582 14.168 13.8594C15.1865 13.0469 15.9629 11.8828 16.5439 10.4785C17.5635 8.01172 17.9102 4.97266 17.9844 2.33398L2.26562 2.33398ZM25.875 0C26.4961 0 27 0.521484 27 1.16602C27 4.67578 27 7.34961 27.0693 9.40234C27.1396 11.4746 27.2793 12.8086 27.5195 13.6797C27.7451 14.502 28.0146 14.7539 28.2764 14.8887C28.4971 15.0039 28.7988 15.0801 29.25 15.123L29.25 1.16602C29.25 0.521484 29.7539 0 30.375 0C30.9961 0 31.5 0.521484 31.5 1.16602L31.5 15.123C31.9512 15.0801 32.2529 15.0039 32.4736 14.8887C32.7354 14.7539 33.0049 14.502 33.2305 13.6797C33.4707 12.8086 33.6104 11.4746 33.6807 9.40234C33.75 7.34961 33.75 4.67578 33.75 1.16602C33.75 0.521484 34.2539 0 34.875 0C35.4961 0 36 0.521484 36 1.16602L36 1.19141C36 4.66992 36 7.38477 35.9287 9.48438C35.8584 11.5664 35.7168 13.1504 35.3945 14.3203C35.0576 15.541 34.4834 16.4551 33.4795 16.9766C32.8887 17.2832 32.2119 17.4121 31.5 17.4648L31.5 26.834C31.5 27.4785 30.9961 28 30.375 28C29.7539 28 29.25 27.4785 29.25 26.834L29.25 17.4648C28.5381 17.4121 27.8613 17.2832 27.2705 16.9766C26.2666 16.4551 25.6924 15.541 25.3555 14.3203C25.0332 13.1504 24.8916 11.5664 24.8213 9.48438C24.75 7.38477 24.75 4.66992 24.75 1.19141L24.75 1.16602C24.75 0.521484 25.2539 0 25.875 0Z" fill="#2C2C2C" fill-opacity="1.000000" fill-rule="evenodd"/>
</svg>
