<svg width="24.000000" height="17.000000" viewBox="0 0 24 17" fill="none" xmlns="http://www.w3.org/2000/svg" xmlns:xlink="http://www.w3.org/1999/xlink">
	<desc>
			Created with Pixso.
	</desc>
	<defs/>
	<path id="Vector" d="M17.6543 3.03711L19.2783 3.03711C19.3027 2.76367 19.3223 2.62891 19.3379 2.56055C19.3545 2.49023 19.4023 2.35742 19.4424 2.26562C19.4951 2.14648 19.5674 2.04102 19.6689 1.91992C19.7871 1.78516 19.8535 1.73047 19.9697 1.66992C20.0537 1.625 20.1807 1.57227 20.251 1.55078C20.3291 1.5293 20.4971 1.50781 20.6719 1.50195C20.8926 1.49219 21.0049 1.49609 21.1328 1.52344C21.2373 1.54688 21.3633 1.59375 21.4541 1.64453C21.5537 1.70117 21.6465 1.77539 21.7246 1.86719C21.79 1.94141 21.875 2.06641 21.9092 2.14062C21.9453 2.21484 21.9873 2.33789 22.0049 2.41211C22.0215 2.48828 22.0352 2.63477 22.0352 2.74219C22.0352 2.8457 22.0205 2.99609 22.0029 3.07031C21.9873 3.14453 21.9424 3.27734 21.9072 3.36523C21.873 3.45117 21.7949 3.60547 21.7363 3.70508C21.6777 3.80469 21.5801 3.95703 21.5176 4.04492C21.4561 4.13086 21.3057 4.32031 21.1826 4.46289C21.0625 4.60352 20.6074 5.09961 20.1729 5.5625C19.7373 6.02344 19.334 6.45312 19.2764 6.51562C19.2178 6.57812 18.875 6.93945 18.5186 7.32031L17.8643 8.01367L17.8643 9.27148L24 9.27148L24 7.79688L19.9238 7.78516C21.7324 6.07812 21.9072 5.90234 22.3779 5.37109C22.7412 4.96289 22.9639 4.69336 23.0693 4.52734C23.1582 4.39648 23.2803 4.1875 23.3408 4.0625C23.4023 3.94141 23.4863 3.74805 23.5244 3.63672C23.5645 3.52344 23.6133 3.34375 23.6328 3.24023C23.6572 3.10547 23.667 2.94727 23.667 2.71875C23.667 2.50391 23.6553 2.31836 23.6328 2.18555C23.6133 2.07227 23.5791 1.91406 23.5566 1.83398C23.5332 1.75195 23.4824 1.61523 23.4443 1.5293C23.4043 1.43945 23.3301 1.29688 23.2783 1.21094C23.2236 1.12305 23.1055 0.96875 23.0137 0.869141C22.9229 0.767578 22.793 0.644531 22.7266 0.59375C22.6611 0.544922 22.5225 0.453125 22.416 0.394531C22.3115 0.335938 22.1357 0.251953 22.0254 0.210938C21.915 0.169922 21.7266 0.115234 21.6045 0.0917969C21.4834 0.0644531 21.2812 0.03125 21.1533 0.0214844C21.0264 0.0078125 20.8281 -0.00195312 20.7119 0C20.5977 0.00195312 20.4209 0.0117188 20.3203 0.0234375C20.2227 0.03125 20.0498 0.0625 19.9395 0.0859375C19.8291 0.111328 19.6631 0.158203 19.5693 0.191406C19.4766 0.224609 19.3086 0.298828 19.1982 0.361328C19.0879 0.419922 18.915 0.53125 18.8135 0.607422C18.7109 0.683594 18.5488 0.830078 18.4541 0.931641C18.3574 1.03711 18.2295 1.19531 18.167 1.29102C18.1055 1.38281 18.0088 1.5625 17.9531 1.6875C17.8965 1.8125 17.8262 1.99609 17.7988 2.0957C17.7686 2.19531 17.7324 2.34766 17.7158 2.43555C17.7002 2.52148 17.6807 2.69336 17.6699 2.81445L17.6543 3.03711ZM4.44141 4.2832C4.53906 4.26953 4.64746 4.25391 4.68164 4.25C4.71387 4.24219 4.9541 4.24219 5.21289 4.24609C5.53418 4.25195 5.74414 4.26562 5.875 4.28906C5.97852 4.31055 6.15137 4.35352 6.25586 4.38281C6.36035 4.41211 6.52637 4.46875 6.62695 4.50781C6.72461 4.54883 6.86914 4.61719 6.94727 4.66016C7.02344 4.70312 7.1416 4.77539 7.20801 4.82031C7.27441 4.86328 7.40039 4.96289 7.48828 5.04102C7.57715 5.11719 7.71484 5.25977 7.7959 5.35938C7.87598 5.45703 7.98633 5.60938 8.04004 5.69727C8.0918 5.7832 8.17676 5.94141 8.31055 6.23242L8.42871 6.05664C8.49512 5.95898 8.63574 5.77734 8.74023 5.6543C8.8457 5.5332 9.00098 5.36914 9.08301 5.29492C9.16504 5.21875 9.32715 5.08594 9.44336 5.00195C9.55957 4.91602 9.7627 4.78516 9.89453 4.71094C10.0273 4.63867 10.2256 4.54297 10.3359 4.5C10.4463 4.45703 10.6406 4.39453 10.7666 4.36328C10.8936 4.33008 11.1143 4.28711 11.2578 4.26953C11.4004 4.25195 11.667 4.23633 11.8496 4.23633C12.0322 4.23633 12.2744 4.24414 12.3906 4.25781C12.5068 4.27148 12.7002 4.30078 12.8223 4.32617C12.9424 4.34961 13.123 4.39648 13.2227 4.42773C13.3213 4.46094 13.4941 4.52734 13.6045 4.57812C13.7139 4.62695 13.877 4.71484 13.9648 4.77344C14.0527 4.83008 14.1973 4.94141 14.2861 5.01758C14.374 5.0957 14.5264 5.25391 14.627 5.37109C14.7246 5.49023 14.8574 5.66992 14.9189 5.77734C14.9814 5.88477 15.0762 6.06836 15.1279 6.18555C15.1797 6.30273 15.2617 6.53125 15.3086 6.69531C15.3564 6.85547 15.4189 7.12109 15.4463 7.28516C15.4746 7.44531 15.5107 7.72852 15.5264 7.91211C15.5547 8.20312 15.5586 8.83398 15.5586 17L13.6543 17L13.6484 12.5723C13.6445 8.44531 13.6396 8.13086 13.6084 7.93164C13.5879 7.8125 13.5439 7.62305 13.5117 7.51172C13.4775 7.39844 13.416 7.23047 13.3691 7.13672C13.3252 7.04492 13.251 6.91016 13.2031 6.84375C13.1572 6.77539 13.0703 6.66797 13.0107 6.60938C12.9502 6.54883 12.8477 6.46484 12.7822 6.41797C12.7158 6.375 12.5977 6.31055 12.5215 6.27539C12.4434 6.24023 12.3086 6.19141 12.2207 6.16406C12.1328 6.14062 11.9561 6.10156 11.8291 6.08008C11.6514 6.05078 11.5107 6.04688 11.208 6.05469C10.8535 6.06445 10.7949 6.07227 10.5762 6.13867C10.4385 6.17773 10.25 6.25586 10.1357 6.31641C10.0254 6.375 9.87695 6.4707 9.80469 6.52539C9.73242 6.58203 9.61621 6.68945 9.5459 6.76367C9.47559 6.83789 9.36523 6.9707 9.30371 7.05859C9.23926 7.14453 9.14453 7.29883 9.09082 7.39844C9.03906 7.49805 8.96484 7.65625 8.93066 7.75C8.89648 7.8418 8.84766 7.99609 8.82617 8.08984C8.80176 8.18359 8.76953 8.34961 8.75195 8.46484C8.72559 8.64258 8.72168 9.17969 8.72168 17L6.83691 17L6.83691 12.832C6.83691 10.1172 6.8291 8.56641 6.81543 8.37305C6.80469 8.21094 6.77734 7.98047 6.75293 7.86328C6.73047 7.74609 6.68652 7.57031 6.6543 7.47852C6.625 7.38477 6.55469 7.22656 6.50195 7.12305C6.44824 7.02344 6.35547 6.87695 6.2959 6.79883C6.23535 6.7207 6.12695 6.60742 6.05469 6.54492C5.9834 6.48633 5.83887 6.39258 5.73438 6.33594C5.62988 6.27734 5.46777 6.20898 5.37305 6.17578C5.2793 6.14648 5.1084 6.10547 4.99219 6.08594C4.86621 6.0625 4.64941 6.04883 4.45508 6.04883C4.27637 6.04883 4.06055 6.06055 3.97363 6.07227C3.88965 6.08594 3.75098 6.11328 3.66895 6.13281C3.58691 6.15039 3.45508 6.19531 3.37891 6.22461C3.2998 6.25586 3.15234 6.33008 3.04785 6.39258C2.94336 6.45312 2.79883 6.55273 2.72656 6.61328C2.6543 6.67578 2.52637 6.80664 2.44043 6.9082C2.35547 7.00781 2.22949 7.18555 2.16309 7.30078C2.0957 7.41602 2.01074 7.58008 1.9043 7.81836L1.9043 17L0 17L0 4.46289L1.80469 4.46289L1.81445 4.5918C1.81836 4.66406 1.82812 4.88672 1.83496 5.08594C1.84082 5.28516 1.85059 5.5293 1.87109 5.81055L2.04297 5.60938C2.1377 5.49805 2.28418 5.34375 2.36621 5.26758C2.44824 5.18945 2.59668 5.06445 2.69629 4.99219C2.79492 4.91992 2.98145 4.80273 3.10742 4.73047C3.23438 4.66016 3.44238 4.56055 3.56934 4.51172C3.69531 4.46289 3.90332 4.39648 4.03027 4.36523C4.15625 4.33398 4.34082 4.29492 4.44141 4.2832Z" fill="#1A1D20" fill-opacity="1.000000" fill-rule="evenodd"/>
</svg>
