<svg width="150.000000" height="32.000000" viewBox="0 0 150 32" fill="none" xmlns="http://www.w3.org/2000/svg" xmlns:xlink="http://www.w3.org/1999/xlink">
	<desc>
			Created with Pixso.
	</desc>
	<defs/>
	<path id="Vector" d="M7.41309 0L25.0908 5.49414C26.2451 5.85352 27.001 6.88086 27.001 8.00977C27.001 8.16211 26.9873 8.31641 26.958 8.47266L26.1943 12.6191C25.877 14.3438 24.7256 15.8223 23.0908 16.6074L22.6172 16.834C23.5811 17.5176 24.1406 18.5996 24.1406 19.7324C24.1406 20.0879 24.085 20.4473 23.9707 20.8027L21.3867 28.7832C20.6123 31.1738 17.9746 32.5234 15.4707 31.8086L0 27.4023L7.41309 0ZM8.46973 1.8457L1.82324 26.4141L15.9004 30.4258C17.6133 30.9141 19.418 29.9902 19.9473 28.3535L22.5322 20.375C22.6006 20.1621 22.6338 19.9453 22.6338 19.7324C22.6338 18.9297 22.166 18.1699 21.3848 17.7949L19.4902 16.8887L19.4902 18.2461L13.9668 18.2461L13.9668 20.1719L20.4951 20.1719L20.4951 25.9453L7.43945 25.9453L7.43945 6.2168L20.4951 6.2168L20.4951 11.0273L13.9668 11.0273L13.9668 12.9531L19.4902 12.9531L19.4902 16.7168L22.417 15.3145C23.625 14.7363 24.4766 13.6426 24.7109 12.3672L25.4746 8.2207C25.4883 8.15039 25.4941 8.08008 25.4941 8.01172C25.4941 7.49805 25.1504 7.03125 24.626 6.86719L8.46973 1.8457ZM101.087 15.0762L101.087 15.084C101.055 16.7148 100.525 18.084 99.4727 19.1465C98.4092 20.2188 96.999 20.7402 95.2969 20.7402C93.5947 20.7402 92.1846 20.2188 91.1221 19.1465C90.0684 18.084 89.5391 16.7148 89.5078 15.084L89.5068 15.0762L89.5078 15.0664C89.5391 13.4355 90.0684 12.0684 91.1221 11.0059C92.1846 9.93359 93.5947 9.41211 95.2969 9.41211C96.999 9.41211 98.4092 9.93359 99.4727 11.0059C100.525 12.0684 101.055 13.4355 101.087 15.0664L101.087 15.0762ZM113.146 15.0762L113.146 15.084C113.114 16.7148 112.585 18.084 111.531 19.1465C110.469 20.2188 109.059 20.7402 107.356 20.7402C105.654 20.7402 104.244 20.2188 103.182 19.1465C102.128 18.084 101.599 16.7148 101.566 15.084L101.566 15.0762L101.566 15.0664C101.599 13.4355 102.128 12.0684 103.182 11.0059C104.244 9.93359 105.654 9.41211 107.356 9.41211C109.059 9.41211 110.469 9.93359 111.531 11.0059C112.585 12.0684 113.114 13.4355 113.146 15.0664L113.146 15.0762ZM145.002 14.1035L149.968 14.1035L149.968 19.4199L149.723 19.5605C148.356 20.3418 146.928 20.7402 145.443 20.7402C143.75 20.7402 142.338 20.2168 141.257 19.1504C140.179 18.084 139.654 16.7109 139.654 15.0762C139.654 13.4355 140.197 12.0605 141.308 10.9961C142.404 9.94531 143.737 9.41211 145.277 9.41211C146.791 9.41211 148.222 9.80859 149.562 10.5938L150 10.8516L148.821 12.6094L148.396 12.334C147.817 11.959 147.404 11.7969 147.015 11.7207C146.629 11.6445 146.244 11.6445 145.677 11.6445L145.579 11.6445C144.493 11.6445 143.65 11.9551 143.005 12.5508C142.368 13.1348 142.029 13.9434 142.029 15.0332C142.029 16.1133 142.36 16.9512 142.99 17.5879C143.61 18.2051 144.468 18.5352 145.624 18.5352C146.385 18.5352 147.095 18.3848 147.759 18.0859L147.759 16.25L145.002 16.25L145.002 14.1035ZM46.6855 9.55664L49.252 9.55664L44.499 20.5957L42.2002 20.5957L37.9209 10.6562L37.9209 11.7461L32.001 11.7461L32.001 13.9746L37.3789 13.9746L37.3789 16.1641L32.001 16.1641L32.001 18.4062L37.9209 18.4062L37.9209 20.5957L29.626 20.5957L29.626 9.55664L40.0293 9.55664L43.3506 17.5449L46.6855 9.55664ZM57.6855 11.7461L51.7656 11.7461L51.7656 13.9746L57.1436 13.9746L57.1436 16.1641L51.7656 16.1641L51.7656 18.4062L57.6855 18.4062L57.6855 20.5957L49.3906 20.5957L49.3906 9.55664L57.6855 9.55664L57.6855 11.7461ZM66.6494 9.55664L69.0244 9.55664L69.0244 20.5957L66.5742 20.5957L61.2207 13.2949L61.2207 20.5957L58.8457 20.5957L58.8457 9.55664L61.2959 9.55664L66.6494 16.8633L66.6494 9.55664ZM79.248 9.55664L79.248 11.7461L75.6182 11.7461L75.6182 20.5957L73.2432 20.5957L73.2432 11.7461L69.6123 11.7461L69.6123 9.55664L79.248 9.55664ZM79.8457 20.5957L79.8457 9.55664L84.5811 9.55664C85.7256 9.55664 86.6855 9.80664 87.3887 10.375C88.1055 10.9473 88.458 11.7227 88.458 12.6504C88.458 13.25 88.3203 13.793 88.0195 14.252C87.8848 14.457 87.7217 14.6406 87.5332 14.8008C87.8838 14.9902 88.1836 15.2227 88.4229 15.5039C88.8457 15.998 89.0449 16.6035 89.0449 17.2852C89.0449 18.3418 88.6758 19.207 87.8799 19.7891C87.1084 20.3535 86.0117 20.5957 84.6719 20.5957L79.8457 20.5957ZM126.575 9.55664L126.575 20.5957L121.517 20.5957L117.801 15.9023L116.634 17.0605L116.634 20.5957L114.259 20.5957L114.259 9.55664L116.634 9.55664L116.634 14.0254L121.037 9.55664L126.575 9.55664ZM136.148 9.55664L138.523 9.55664L138.523 20.5957L136.073 20.5957L130.72 13.2949L130.72 20.5957L128.345 20.5957L128.345 9.55664L130.795 9.55664L136.148 16.8633L136.148 9.55664ZM124.2 20.2734L124.2 9.58789L119.416 14.3184L124.2 20.2734ZM97.7871 12.5703L97.7852 12.5684C97.1924 11.9355 96.3789 11.6016 95.2822 11.6016C94.1963 11.6016 93.3867 11.9336 92.7939 12.5664C92.1953 13.207 91.8828 14.0293 91.8828 15.0762C91.8828 16.1191 92.1953 16.9492 92.7939 17.5977C93.3867 18.2207 94.1953 18.5508 95.2822 18.5508C96.3799 18.5508 97.1943 18.2207 97.7861 17.5977C98.3945 16.9473 98.7119 16.1191 98.7119 15.0762C98.7119 14.0312 98.3945 13.209 97.7871 12.5703ZM109.847 12.5703L109.845 12.5684C109.252 11.9355 108.438 11.6016 107.342 11.6016C106.256 11.6016 105.446 11.9336 104.853 12.5684C104.255 13.207 103.941 14.0293 103.941 15.0762C103.941 16.1191 104.254 16.9492 104.853 17.5977C105.445 18.2207 106.255 18.5508 107.342 18.5508C108.439 18.5508 109.254 18.2207 109.846 17.5977C110.454 16.9473 110.771 16.1191 110.771 15.0762C110.771 14.0312 110.454 13.209 109.847 12.5703ZM85.7598 12.0566C85.4932 11.8691 85.085 11.7461 84.4756 11.7461L82.2207 11.7461L82.2207 13.916L84.2197 13.916C85.0879 13.916 85.5615 13.7695 85.7812 13.5938C86.0195 13.4043 86.1426 13.1582 86.1426 12.8086C86.1426 12.4629 86.0156 12.2324 85.7646 12.0605L85.7598 12.0566ZM86.3027 18.0645C86.5732 17.875 86.7148 17.6172 86.7148 17.2266C86.7148 16.8262 86.5664 16.5742 86.2783 16.3965C85.9541 16.1953 85.4023 16.0625 84.5508 16.0625L82.2207 16.0625L82.2207 18.4062L84.5361 18.4062C85.4883 18.4062 86.0342 18.2598 86.2988 18.0684L86.3027 18.0645Z" fill="#08C892" fill-opacity="1.000000" fill-rule="evenodd"/>
	<path id="Vector" d="M30.9346 27.3008L30.3623 28.9219L29.083 28.9219L31.749 22L32.8584 22L35.5342 28.9219L34.249 28.9219L33.6768 27.3008L30.9346 27.3008ZM100.571 22.5176L101.743 22.5176L101.743 23.7773L102.683 23.7773L102.683 24.6152L101.743 24.6152L101.743 27.5C101.743 27.6602 101.767 27.7812 101.812 27.8672C101.86 27.9492 101.927 28.0039 102.011 28.0332C102.096 28.0625 102.194 28.0762 102.308 28.0762C102.389 28.0762 102.467 28.0723 102.541 28.0625C102.616 28.0527 102.676 28.043 102.722 28.0332L102.727 28.9082C102.629 28.9375 102.516 28.9629 102.386 28.9844C102.259 29.0059 102.113 29.0176 101.948 29.0176C101.679 29.0176 101.44 28.9707 101.232 28.8789C101.025 28.7852 100.863 28.6309 100.746 28.418C100.63 28.2051 100.571 27.9238 100.571 27.5723L100.571 24.6152L99.7148 24.6152L99.7148 23.7773L100.571 23.7773L100.571 22.5176ZM32.3037 23.418L31.2676 26.3555L33.3418 26.3555L32.3037 23.418ZM44.9131 26.3027L44.9131 26.4023C44.9131 26.7773 44.8672 27.123 44.7764 27.4434C44.6895 27.7598 44.5576 28.0371 44.3828 28.2754C44.2109 28.5098 43.998 28.6934 43.7451 28.8223C43.4922 28.9531 43.2002 29.0176 42.8701 29.0176Q42.3789 29.0176 42.0088 28.8418C41.8086 28.7422 41.6328 28.6094 41.4834 28.4434L41.4834 30.9004L40.3105 30.9004L40.3105 23.7773L41.3906 23.7773L41.4414 24.3145C41.5996 24.123 41.7891 23.9727 42.0088 23.8633C42.252 23.7441 42.5361 23.6836 42.8604 23.6836C43.1904 23.6836 43.4844 23.7461 43.7402 23.873C43.9971 23.9961 44.2129 24.1738 44.3877 24.4062C44.5625 24.6348 44.6943 24.9102 44.7812 25.2324Q44.9131 25.7129 44.9131 26.3027ZM48.2305 29.0176C47.8418 29.0176 47.4893 28.9551 47.1748 28.832C46.8643 28.7051 46.5977 28.5293 46.377 28.3047C46.1602 28.0801 45.9932 27.8145 45.876 27.5098C45.7598 27.2051 45.7012 26.8789 45.7012 26.5254L45.7012 26.3359C45.7012 25.9336 45.7607 25.5684 45.8809 25.2422C46.001 24.916 46.168 24.6367 46.3818 24.4062C46.5967 24.1719 46.8496 23.9922 47.1406 23.8691C47.4326 23.7441 47.749 23.6836 48.0898 23.6836Q48.6543 23.6836 49.0771 23.8691C49.3594 23.9922 49.5928 24.166 49.7773 24.3906C49.9658 24.6133 50.1055 24.8789 50.1963 25.1855C50.29 25.4922 50.3369 25.832 50.3369 26.2031L50.3369 26.6934L46.8838 26.6934C46.8955 26.8555 46.9248 27.0098 46.9707 27.1543C47.0361 27.3438 47.1299 27.5098 47.2529 27.6523C47.376 27.7949 47.5254 27.9082 47.7002 27.9902C47.876 28.0703 48.0752 28.1094 48.2988 28.1094C48.5811 28.1094 48.832 28.0547 49.0527 27.9434C49.2734 27.832 49.4648 27.6758 49.627 27.4727L50.2451 28.0566C50.1309 28.2188 49.9834 28.373 49.8018 28.5234C49.6201 28.668 49.3984 28.7871 49.1357 28.8789Q48.7461 29.0176 48.2305 29.0176ZM58.4033 25.7949L58.4033 25.4375C58.4033 25.2539 58.3691 25.0957 58.3008 24.9629C58.2324 24.8281 58.1289 24.7266 57.9893 24.6523C57.8535 24.5801 57.6816 24.543 57.4736 24.543C57.2822 24.543 57.1172 24.5762 56.9775 24.6387C56.8379 24.7012 56.7295 24.7871 56.6514 24.8945C56.5742 25.0039 56.5352 25.125 56.5352 25.2617L55.3672 25.2617C55.3672 25.0586 55.418 24.8613 55.5186 24.6719C55.6191 24.4824 55.7646 24.3125 55.9561 24.1641C56.1475 24.0137 56.376 23.8965 56.6416 23.8105C56.9082 23.7266 57.2061 23.6836 57.5371 23.6836C57.9326 23.6836 58.2832 23.748 58.5879 23.8789C58.8965 24.0078 59.1377 24.2051 59.3125 24.4668C59.4912 24.7266 59.5801 25.0547 59.5801 25.4473L59.5801 27.7344Q59.5801 28.0859 59.6289 28.3652C59.665 28.5508 59.7148 28.7109 59.7803 28.8457L59.7803 28.9219L58.5781 28.9219Q58.4951 28.7363 58.4473 28.4512Q58.4443 28.4336 58.4414 28.4141C58.3945 28.4648 58.3447 28.5137 58.291 28.5605C58.1416 28.6934 57.9619 28.8027 57.751 28.8887Q57.4395 29.0176 57.0312 29.0176C56.6875 29.0176 56.3809 28.9512 56.1113 28.8184C55.8428 28.6816 55.6318 28.5 55.4795 28.2715C55.3271 28.0391 55.251 27.7773 55.251 27.4863C55.251 27.2148 55.3027 26.9727 55.4062 26.7637C55.5137 26.5508 55.6689 26.373 55.873 26.2305C56.0811 26.0879 56.334 25.9805 56.6318 25.9082C56.9307 25.832 57.2715 25.7949 57.6543 25.7949L58.4033 25.7949ZM65.2725 26.4082L65.2725 26.2988C65.2725 25.9277 65.3271 25.584 65.4375 25.2656Q65.6016 24.7891 65.9102 24.4395L65.9141 24.4336C66.125 24.1973 66.3809 24.0117 66.6826 23.8828C66.9883 23.75 67.332 23.6836 67.7139 23.6836C68.1006 23.6836 68.4443 23.75 68.7461 23.8828C69.0508 24.0117 69.3086 24.1973 69.5195 24.4336Q69.5391 24.457 69.5596 24.4805Q69.8457 24.8164 70.001 25.2656Q70.166 25.7422 70.166 26.2988L70.166 26.4082C70.166 26.7773 70.1113 27.1211 70.001 27.4395C69.8906 27.7559 69.7295 28.0332 69.5195 28.2715C69.3086 28.5059 69.0518 28.6895 68.75 28.8223C68.4492 28.9531 68.1064 29.0176 67.7236 29.0176C67.3379 29.0176 66.9922 28.9531 66.6875 28.8223C66.3857 28.6895 66.1299 28.5059 65.9189 28.2715C65.708 28.0332 65.5479 27.7559 65.4375 27.4395C65.3271 27.1211 65.2725 26.7773 65.2725 26.4082ZM75.7559 26.3027L75.7559 26.4023C75.7559 26.7773 75.71 27.123 75.6191 27.4434C75.5322 27.7598 75.4004 28.0371 75.2256 28.2754C75.0537 28.5098 74.8408 28.6934 74.5879 28.8223C74.335 28.9531 74.043 29.0176 73.7129 29.0176C73.3848 29.0176 73.0977 28.959 72.8516 28.8418C72.6514 28.7422 72.4756 28.6094 72.3262 28.4434L72.3262 30.9004L71.1533 30.9004L71.1533 23.7773L72.2334 23.7773L72.2842 24.3145C72.4424 24.123 72.6318 23.9727 72.8516 23.8633Q73.2168 23.6836 73.7031 23.6836C74.0332 23.6836 74.3271 23.7461 74.583 23.873C74.8398 23.9961 75.0557 24.1738 75.2305 24.4062C75.4053 24.6348 75.5371 24.9102 75.624 25.2324C75.7119 25.5527 75.7559 25.9102 75.7559 26.3027ZM81.5547 29.0176C81.165 29.0176 80.8135 28.9551 80.499 28.832C80.1875 28.7051 79.9219 28.5293 79.7012 28.3047C79.4834 28.0801 79.3164 27.8145 79.2002 27.5098Q79.0254 27.0547 79.0254 26.5254L79.0254 26.3359C79.0254 25.9336 79.085 25.5684 79.2051 25.2422C79.3252 24.916 79.4922 24.6367 79.7061 24.4062C79.9199 24.1719 80.1729 23.9922 80.4648 23.8691C80.7568 23.7441 81.0732 23.6836 81.4131 23.6836C81.79 23.6836 82.1191 23.7441 82.4014 23.8691C82.6836 23.9922 82.917 24.166 83.1016 24.3906C83.29 24.6133 83.4287 24.8789 83.5195 25.1855C83.6143 25.4922 83.6611 25.832 83.6611 26.2031L83.6611 26.6934L80.208 26.6934Q80.2256 26.9355 80.2949 27.1543C80.3594 27.3438 80.4531 27.5098 80.5771 27.6523Q80.6406 27.7266 80.7148 27.791Q80.8525 27.9102 81.0244 27.9902C81.1992 28.0703 81.3994 28.1094 81.623 28.1094Q82.0459 28.1094 82.377 27.9434C82.5977 27.832 82.7891 27.6758 82.9512 27.4727L83.5684 28.0566C83.4551 28.2188 83.3076 28.373 83.126 28.5234C82.9443 28.668 82.7217 28.7871 82.459 28.8789Q82.0703 29.0176 81.5547 29.0176ZM91.7021 29.0176C91.3135 29.0176 90.9619 28.9551 90.6465 28.832C90.3359 28.7051 90.0693 28.5293 89.8486 28.3047C89.6318 28.0801 89.4648 27.8145 89.3477 27.5098Q89.1729 27.0547 89.1729 26.5254L89.1729 26.3359C89.1729 25.9336 89.2324 25.5684 89.3525 25.2422C89.4727 24.916 89.6396 24.6367 89.8535 24.4062C90.0684 24.1719 90.3213 23.9922 90.6133 23.8691C90.9043 23.7441 91.2207 23.6836 91.5615 23.6836C91.9375 23.6836 92.2666 23.7441 92.5488 23.8691C92.8311 23.9922 93.0645 24.166 93.25 24.3906Q93.5312 24.7246 93.668 25.1855C93.7617 25.4922 93.8086 25.832 93.8086 26.2031L93.8086 26.6934L90.3564 26.6934C90.3672 26.8555 90.3965 27.0098 90.4424 27.1543C90.5078 27.3438 90.6016 27.5098 90.7246 27.6523C90.8477 27.7949 90.9971 27.9082 91.1719 27.9902C91.3477 28.0703 91.5469 28.1094 91.7705 28.1094C92.0527 28.1094 92.3037 28.0547 92.5244 27.9434C92.7451 27.832 92.9365 27.6758 93.0986 27.4727L93.7168 28.0566C93.6035 28.2188 93.4551 28.373 93.2734 28.5234C93.0918 28.668 92.8701 28.7871 92.6074 28.8789Q92.2178 29.0176 91.7021 29.0176ZM95.8564 24.3984Q95.8691 24.3828 95.8818 24.3672C96.0664 24.1484 96.2871 23.9805 96.543 23.8633C96.7988 23.7441 97.085 23.6836 97.3994 23.6836C97.6523 23.6836 97.8809 23.7188 98.085 23.7871C98.293 23.8535 98.4697 23.9629 98.6152 24.1152C98.7646 24.2676 98.8779 24.4668 98.9561 24.7109C99.0342 24.9512 99.0723 25.248 99.0723 25.5996L99.0723 28.9219L97.8955 28.9219L97.8955 25.5938C97.8955 25.3477 97.8584 25.1523 97.7832 25.0098C97.7119 24.8633 97.6064 24.7598 97.4678 24.7012C97.3311 24.6367 97.1611 24.6055 96.9561 24.6055C96.7559 24.6055 96.5752 24.6465 96.417 24.7285C96.2578 24.8105 96.123 24.9238 96.0127 25.0664Q95.9424 25.1602 95.8867 25.2656L95.8867 28.9219L94.7139 28.9219L94.7139 23.7773L95.8184 23.7773L95.8564 24.3984ZM113.939 28.1055C114.131 28.1055 114.303 28.0684 114.455 27.9961C114.611 27.9199 114.735 27.8145 114.83 27.6816C114.927 27.5488 114.98 27.3945 114.99 27.2207L116.095 27.2207C116.088 27.5527 115.987 27.8555 115.793 28.1289C115.599 28.4004 115.341 28.6172 115.02 28.7793C114.698 28.9375 114.344 29.0176 113.954 29.0176C113.552 29.0176 113.202 28.9512 112.903 28.8184C112.604 28.6816 112.356 28.4941 112.159 28.2559C111.961 28.0195 111.812 27.7441 111.711 27.4336C111.614 27.123 111.565 26.791 111.565 26.4355L111.565 26.2695C111.565 25.9141 111.614 25.582 111.711 25.2715C111.812 24.957 111.961 24.6816 112.159 24.4434C112.356 24.2051 112.604 24.0215 112.903 23.8867C113.202 23.752 113.551 23.6836 113.949 23.6836C114.371 23.6836 114.74 23.7656 115.059 23.9297C115.376 24.0918 115.626 24.3184 115.808 24.6094C115.992 24.8984 116.088 25.2344 116.095 25.6172L114.99 25.6172C114.98 25.4277 114.932 25.2559 114.845 25.1055C114.76 24.9492 114.64 24.8262 114.484 24.7344C114.332 24.6426 114.148 24.5957 113.935 24.5957C113.698 24.5957 113.502 24.6426 113.346 24.7383C113.19 24.8301 113.068 24.957 112.981 25.1191C112.894 25.2773 112.83 25.457 112.791 25.6562C112.756 25.8535 112.738 26.0566 112.738 26.2695L112.738 26.4355C112.738 26.6484 112.756 26.8535 112.791 27.0547C112.827 27.2539 112.889 27.4336 112.977 27.5918C113.067 27.7461 113.19 27.8711 113.346 27.9668C113.502 28.0586 113.699 28.1055 113.939 28.1055ZM39.625 23.7773L39.625 24.6914L37.3291 24.6914L37.3291 28.9219L36.1562 28.9219L36.1562 23.7773L39.625 23.7773ZM54.7549 23.7773L54.7549 24.6914L52.458 24.6914L52.458 28.9219L51.2861 28.9219L51.2861 23.7773L54.7549 23.7773ZM64.8975 23.7773L64.8975 24.6816L63.1709 24.6816L63.1709 28.9219L61.9932 28.9219L61.9932 24.6816L60.2959 24.6816L60.2959 23.7773L64.8975 23.7773ZM85.2324 23.7773L86.3789 27.4922L87.5088 23.7773L88.7256 23.7773L86.8965 28.9219L85.8506 28.9219L84.0117 23.7773L85.2324 23.7773ZM107.693 23.7773L108.834 27.293L109.931 23.7773L111.186 23.7773L109.074 29.707C109.026 29.834 108.963 29.9707 108.885 30.1211C108.808 30.2695 108.705 30.4102 108.578 30.543C108.455 30.6797 108.301 30.7891 108.116 30.8711C107.932 30.957 107.708 31 107.445 31C107.341 31 107.24 30.9902 107.144 30.9707C107.05 30.9551 106.96 30.9375 106.876 30.9199L106.871 30.0449C106.903 30.0469 106.942 30.0508 106.987 30.0547C107.036 30.0566 107.075 30.0586 107.104 30.0586C107.299 30.0586 107.461 30.0352 107.591 29.9883C107.721 29.9434 107.826 29.8691 107.907 29.7695C107.991 29.668 108.062 29.5312 108.121 29.3594L108.292 28.9102L106.429 23.7773L107.693 23.7773ZM117.676 23.7773L121.451 23.7773L121.451 28.9219L120.278 28.9219L120.278 24.6914L118.783 24.6914L118.692 26.3223C118.673 26.6992 118.634 27.0312 118.575 27.3203C118.521 27.6055 118.446 27.8516 118.352 28.0566C118.258 28.2598 118.143 28.4238 118.007 28.5508C117.87 28.6777 117.711 28.7715 117.529 28.832C117.348 28.8926 117.144 28.9219 116.917 28.9219L116.552 28.9219L116.547 27.9805L116.731 27.9668C116.852 27.957 116.956 27.9277 117.043 27.877C117.131 27.8223 117.205 27.7461 117.267 27.6484C117.332 27.5508 117.384 27.4238 117.423 27.2676C117.465 27.1133 117.497 26.9277 117.52 26.7168C117.546 26.5039 117.565 26.2559 117.578 25.9746L117.676 23.7773ZM123.416 23.7773L124.557 27.293L125.654 23.7773L126.909 23.7773L124.798 29.707C124.749 29.834 124.686 29.9707 124.608 30.1211C124.53 30.2695 124.428 30.4102 124.302 30.543C124.179 30.6797 124.024 30.7891 123.839 30.8711C123.654 30.957 123.431 31 123.168 31C123.064 31 122.964 30.9902 122.866 30.9707C122.772 30.9551 122.684 30.9375 122.599 30.9199L122.594 30.0449C122.626 30.0469 122.665 30.0508 122.711 30.0547Q122.783 30.0586 122.827 30.0586C123.022 30.0586 123.185 30.0352 123.313 29.9883C123.443 29.9434 123.549 29.8691 123.63 29.7695C123.715 29.668 123.786 29.5312 123.844 29.3594L124.016 28.9102L122.151 23.7773L123.416 23.7773ZM131.083 23.7773L131.083 24.6914L128.787 24.6914L128.787 28.9219L127.614 28.9219L127.614 23.7773L131.083 23.7773ZM46.9082 25.8691L49.1797 25.8691L49.1797 25.7793C49.1729 25.5742 49.1309 25.3809 49.0527 25.1992C48.9785 25.0195 48.8633 24.873 48.708 24.7617C48.5518 24.6504 48.3447 24.5957 48.085 24.5957C47.8906 24.5957 47.7168 24.6367 47.5645 24.7188C47.415 24.7988 47.29 24.9141 47.1895 25.0664Q47.0391 25.2949 46.9561 25.6172C46.9365 25.6973 46.9209 25.7812 46.9082 25.8691ZM66.4443 26.2988L66.4443 26.4082C66.4443 26.6387 66.4688 26.8574 66.5176 27.0625C66.5664 27.2695 66.6426 27.4492 66.7461 27.6055C66.8496 27.7598 66.9834 27.8828 67.1455 27.9707C67.3076 28.0605 67.5 28.1055 67.7236 28.1055C67.9414 28.1055 68.1299 28.0605 68.2881 27.9707C68.4502 27.8828 68.583 27.7598 68.6875 27.6055Q68.8428 27.373 68.916 27.0625C68.9678 26.8574 68.9941 26.6387 68.9941 26.4082L68.9941 26.2988C68.9941 26.0703 68.9678 25.8535 68.916 25.6504C68.8672 25.4453 68.7891 25.2637 68.6826 25.1055C68.5781 24.9453 68.4453 24.8223 68.2832 24.7344C68.125 24.6426 67.9346 24.5957 67.7139 24.5957C67.4941 24.5957 67.3027 24.6426 67.1406 24.7344C66.9814 24.8223 66.8496 24.9453 66.7461 25.1055C66.6426 25.2637 66.5664 25.4453 66.5176 25.6504C66.4688 25.8535 66.4443 26.0703 66.4443 26.2988ZM80.2324 25.8691L82.5029 25.8691L82.5029 25.7793C82.4971 25.5742 82.4551 25.3809 82.377 25.1992C82.3018 25.0195 82.1875 24.873 82.0312 24.7617C81.876 24.6504 81.668 24.5957 81.4082 24.5957C81.2139 24.5957 81.041 24.6367 80.8877 24.7188C80.7393 24.7988 80.6143 24.9141 80.5137 25.0664C80.4131 25.2188 80.335 25.4023 80.2803 25.6172C80.2607 25.6973 80.2441 25.7812 80.2324 25.8691ZM90.3799 25.8691L92.6514 25.8691L92.6514 25.7793C92.6445 25.5742 92.6025 25.3809 92.5244 25.1992C92.4502 25.0195 92.335 24.873 92.1797 24.7617C92.0234 24.6504 91.8164 24.5957 91.5566 24.5957C91.3623 24.5957 91.1885 24.6367 91.0361 24.7188Q90.9932 24.7422 90.9521 24.7695Q90.7832 24.8828 90.6611 25.0664C90.5605 25.2188 90.4834 25.4023 90.4277 25.6172C90.4082 25.6973 90.3926 25.7812 90.3799 25.8691ZM41.4834 25.2188L41.4834 27.4824C41.5771 27.6719 41.71 27.8242 41.8818 27.9375C42.0576 28.0488 42.2812 28.1055 42.5537 28.1055C42.7646 28.1055 42.9443 28.0605 43.0938 27.9707C43.2432 27.8828 43.3643 27.7598 43.458 27.6055C43.5557 27.4473 43.627 27.2656 43.6729 27.0586Q43.7402 26.75 43.7402 26.4023L43.7402 26.3027C43.7402 26.0645 43.7178 25.8438 43.6729 25.6426C43.627 25.4355 43.5557 25.2559 43.458 25.0996Q43.3574 24.9395 43.2168 24.8281Q43.1543 24.7773 43.084 24.7383C42.9346 24.6504 42.7549 24.6055 42.5439 24.6055C42.3359 24.6055 42.1582 24.6406 42.0088 24.7109C41.8594 24.7773 41.7344 24.8691 41.6338 24.9902C41.5762 25.0605 41.5264 25.1348 41.4834 25.2188ZM72.3262 25.2188L72.3262 27.4824C72.4199 27.6719 72.5527 27.8242 72.7246 27.9375C72.9004 28.0488 73.124 28.1055 73.3965 28.1055C73.6074 28.1055 73.7871 28.0605 73.9365 27.9707C74.0859 27.8828 74.207 27.7598 74.3008 27.6055C74.3984 27.4473 74.4697 27.2656 74.5156 27.0586C74.5605 26.8535 74.583 26.6348 74.583 26.4023L74.583 26.3027C74.583 26.0645 74.5605 25.8438 74.5156 25.6426Q74.4473 25.332 74.3008 25.0996C74.2041 24.9453 74.0791 24.8242 73.9268 24.7383C73.7773 24.6504 73.5977 24.6055 73.3867 24.6055C73.1787 24.6055 73.001 24.6406 72.8516 24.7109C72.7021 24.7773 72.5771 24.8691 72.4766 24.9902C72.4189 25.0605 72.3691 25.1348 72.3262 25.2188ZM105.946 25.5078L105.946 26.4219L103.373 26.4219L103.373 25.5078L105.946 25.5078ZM58.4033 27.4707L58.4033 26.502L57.7412 26.502C57.5244 26.502 57.333 26.5234 57.167 26.5645C57.002 26.6016 56.8643 26.6602 56.7539 26.7344C56.6436 26.8105 56.5605 26.9043 56.5059 27.0117C56.4502 27.1191 56.4229 27.2402 56.4229 27.377C56.4229 27.5137 56.4551 27.6387 56.5205 27.752C56.585 27.8633 56.6797 27.9512 56.8027 28.0137C56.9287 28.0781 57.0811 28.1094 57.2598 28.1094C57.5 28.1094 57.709 28.0625 57.8877 27.9668C58.0693 27.8691 58.2119 27.75 58.3154 27.6094C58.3506 27.5625 58.3789 27.5156 58.4033 27.4707Z" fill="#2C2C2C" fill-opacity="1.000000" fill-rule="evenodd"/>
</svg>
