<svg width="18.000000" height="20.000000" viewBox="0 0 18 20" fill="none" xmlns="http://www.w3.org/2000/svg" xmlns:xlink="http://www.w3.org/1999/xlink">
	<desc>
			Created with Pixso.
	</desc>
	<defs/>
	<path id="Icon (Stroke)" d="M6.01855 2.66602C6.18457 1.16602 7.45605 0 9 0C10.5439 0 11.8154 1.16602 11.9814 2.66602C14.3555 3.78516 16 6.19922 16 9L16 12.1582C16 12.4316 16.1084 12.6953 16.3018 12.8887L17.707 14.293C17.9932 14.5781 18.0791 15.0098 17.9238 15.3828C17.7695 15.7559 17.4043 16 17 16L13 16C13 18.209 11.209 20 9 20C6.79102 20 5 18.209 5 16L1 16C0.595703 16 0.230469 15.7559 0.0761719 15.3828C-0.0791016 15.0098 0.00683594 14.5781 0.292969 14.293L1.69824 12.8887C1.8916 12.6953 2 12.4316 2 12.1582L2 9C2 6.19922 3.64453 3.78516 6.01855 2.66602ZM7 16C7 17.1055 7.89551 18 9 18C10.1045 18 11 17.1055 11 16L7 16ZM9 2C8.44727 2 8 2.44727 8 3L8 3.3418C8 3.76562 7.73242 4.14258 7.33301 4.28516C5.38965 4.9707 4 6.82422 4 9L4 12.1582C4 12.8281 3.77832 13.4746 3.37695 14L14.623 14C14.2217 13.4746 14 12.8281 14 12.1582L14 9C14 6.82422 12.6104 4.9707 10.667 4.28516C10.2676 4.14258 10 3.76562 10 3.3418L10 3C10 2.44727 9.55273 2 9 2Z" fill="#6C6C6C" fill-opacity="1.000000" fill-rule="evenodd"/>
</svg>
