<svg width="20.000000" height="17.425781" viewBox="0 0 20 17.4258" fill="none" xmlns="http://www.w3.org/2000/svg" xmlns:xlink="http://www.w3.org/1999/xlink">
	<desc>
			Created with Pixso.
	</desc>
	<defs/>
	<path id="Icon" d="M2.31836 8.68164C0.560547 6.92383 0.560547 4.07617 2.31836 2.31836C4.0752 0.560547 6.9248 0.560547 8.68164 2.31836L10 3.63672L11.3184 2.31836C13.0752 0.560547 15.9248 0.560547 17.6816 2.31836C19.4395 4.07617 19.4395 6.92383 17.6816 8.68164L10 16.3633L2.31836 8.68164Z" fill="#FFFFFF" fill-opacity="1.000000" fill-rule="evenodd"/>
	<path id="Icon" d="M2.31836 2.31836C4.0752 0.560547 6.9248 0.560547 8.68164 2.31836L10 3.63672L11.3184 2.31836C13.0752 0.560547 15.9248 0.560547 17.6816 2.31836C19.4395 4.07617 19.4395 6.92383 17.6816 8.68164L10 16.3633L2.31836 8.68164C0.560547 6.92383 0.560547 4.07617 2.31836 2.31836Z" stroke="#6C6C6C" stroke-opacity="1.000000" stroke-width="2.000000" stroke-linejoin="round"/>
</svg>
