<svg width="24.000000" height="24.000000" viewBox="0 0 24 24" fill="none" xmlns="http://www.w3.org/2000/svg" xmlns:xlink="http://www.w3.org/1999/xlink">
	<desc>
			Created with Pixso.
	</desc>
	<defs>
		<clipPath id="clip21_14765">
			<rect id="Atom/Icon/Phone" width="24.000000" height="24.000000" fill="white" fill-opacity="0"/>
		</clipPath>
	</defs>
	<rect id="Atom/Icon/Phone" width="24.000000" height="24.000000" fill="#FFFFFF" fill-opacity="0"/>
	<g clip-path="url(#clip21_14765)">
		<path id="Icon" d="M21 8L21 3L16 3M21 3L15 9M7.37988 9.85352C7.32031 9.72852 7.29004 9.66602 7.26758 9.58789C7.18555 9.30664 7.24414 8.96289 7.41406 8.72461C7.46191 8.6582 7.51953 8.60156 7.63379 8.48633C7.9834 8.13672 8.1582 7.96289 8.27246 7.78711C8.70312 7.12305 8.70312 6.26953 8.27246 5.60547C8.1582 5.42969 7.9834 5.25586 7.63379 4.90625L7.43848 4.71094C6.90723 4.17969 6.6416 3.91406 6.35645 3.76953C5.78906 3.48242 5.11816 3.48242 4.55078 3.76953C4.26562 3.91406 4 4.17969 3.46875 4.71094L3.31055 4.86914C2.78125 5.39844 2.5166 5.66406 2.31445 6.02344C2.08984 6.42383 1.92871 7.04297 1.92969 7.50195C1.93066 7.91406 2.01074 8.19727 2.1709 8.76172C3.03223 11.7949 4.65625 14.6562 7.04492 17.0449C9.43262 19.4336 12.2949 21.0566 15.3281 21.918C15.8926 22.0781 16.1748 22.1582 16.5879 22.1602C17.0459 22.1621 17.667 22 18.0664 21.7754C18.4258 21.5742 18.6914 21.3086 19.2207 20.7793L19.3779 20.6211C19.9102 20.0898 20.1758 19.8242 20.3203 19.5391C20.6064 18.9707 20.6064 18.3008 20.3203 17.7324C20.1758 17.4473 19.9102 17.1816 19.3779 16.6504L19.1836 16.4551C18.834 16.1055 18.6592 15.9316 18.4834 15.8164C17.8203 15.3867 16.9658 15.3867 16.3027 15.8164C16.127 15.9316 15.9521 16.1055 15.6025 16.4551C15.4883 16.5703 15.4316 16.627 15.3643 16.6758C15.127 16.8457 14.7832 16.9043 14.502 16.8223C14.4238 16.7988 14.3613 16.7695 14.2363 16.709C12.7871 16.0137 11.4277 15.0645 10.2266 13.8633C9.02539 12.6621 8.07617 11.3027 7.37988 9.85352Z" stroke="#FFFFFF" stroke-opacity="1.000000" stroke-width="2.000000" stroke-linejoin="round"/>
	</g>
</svg>
